<?xml version="1.0" encoding="UTF-8"?>
<svg version="1.1" xmlns="http://www.w3.org/2000/svg" width="512" height="512">
<path d="M0 0 C12.09838325 10.46176147 21.46524407 21.95118384 28.84179688 36.18896484 C29.36290039 37.18633667 29.36290039 37.18633667 29.89453125 38.20385742 C31.62664192 41.716615 32.77708306 44.81016213 33.28710938 48.70458984 C34.18045079 55.07753109 34.18045079 55.07753109 37.59179688 60.37646484 C43.65016572 63.43858146 50.29312188 64.62935352 56.90820312 65.91943359 C80.12246728 70.47019176 101.32993298 86.92370351 114.39990234 106.28662109 C129.69542917 129.82030093 135.13724952 157.52042297 129.58398438 185.05615234 C128.59388185 189.57439567 127.321688 193.99955139 126.02929688 198.43896484 C120.25490899 218.39952067 121.36629442 236.52409943 126.59179688 256.37646484 C127.14988612 258.53942464 127.70372052 260.70335877 128.25268555 262.86865234 C128.7470309 264.81211484 129.25299637 266.75261112 129.75976562 268.69287109 C135.69955873 294.98970161 129.26608834 321.82700848 115.68896484 344.65869141 C112.31355188 349.94338336 108.30733217 355.1080013 103.48901367 359.13305664 C101.00141991 362.07456984 101.12009008 363.72639959 101.15820312 367.54052734 C101.14853516 368.74580078 101.13886719 369.95107422 101.12890625 371.19287109 C101.14567729 373.70852646 101.16643438 376.22415877 101.19140625 378.73974609 C101.11209071 387.52044336 99.95451949 394.63819984 93.83618164 401.28320312 C87.59586055 407.1820141 81.18104099 408.82973879 72.84594727 408.69775391 C71.57621819 408.69617531 71.57621819 408.69617531 70.28083801 408.69456482 C68.45352456 408.69097329 66.6262145 408.68087023 64.79896736 408.6648941 C61.90175712 408.64178922 59.00530648 408.6407868 56.10801697 408.6461792 C47.87463334 408.65881914 39.64165663 408.64186021 31.40844727 408.5859375 C26.36208693 408.55321584 21.3166643 408.55455899 16.27026176 408.5769577 C14.35378216 408.57870119 12.43724359 408.56750289 10.52092171 408.54285431 C-1.22115541 407.91647316 -1.22115541 407.91647316 -11.42602539 412.71923828 C-12.45604489 413.90808594 -13.45298327 415.1267233 -14.40820312 416.37646484 C-15.56063219 417.49548334 -16.72577578 418.6016927 -17.90820312 419.68896484 C-21.3743866 423.20241446 -24.39125157 427.02621584 -27.44726562 430.89599609 C-43.91180498 451.72265445 -66.86993532 463.45111486 -92.79492188 467.96630859 C-109.79076518 469.89556648 -126.29952944 468.01450063 -142.40820312 462.37646484 C-147.02418454 461.82069451 -149.76771246 463.36901715 -153.78320312 465.56396484 C-181.12635647 479.85261732 -214.16228072 481.51322776 -243.52880859 472.74316406 C-276.03846671 462.47088156 -301.47007232 440.02666678 -317.23242188 410.02539062 C-327.36930471 389.85497083 -334.95389973 360.64035976 -328.40820312 338.37646484 C-329.39820313 338.04646484 -330.38820313 337.71646484 -331.40820312 337.37646484 C-351.26889773 316.83779472 -360.95533473 289.84190802 -360.55664062 261.52490234 C-360.0527775 243.64189142 -354.18987375 228.56411185 -346.43798828 212.75268555 C-339.42822497 198.4069289 -334.94797018 184.83459699 -335.35351562 168.72412109 C-335.37883404 166.70915433 -335.40355401 164.69417997 -335.42773438 162.67919922 C-335.47691823 159.57306853 -335.53258588 156.4673604 -335.60009766 153.36157227 C-336.26534228 120.56291727 -327.79719089 93.1019177 -305.04248047 69.01074219 C-284.63465123 48.60291295 -257.9115636 39.60057242 -229.54467773 38.7277832 C-202.6362261 37.82049057 -180.76557598 28.82179183 -161.02929688 10.12255859 C-118.59477847 -30.07488471 -45.87377481 -38.09530656 0 0 Z " fill="#24D0AE" transform="translate(370.408203125,29.62353515625)"/>
<path d="M0 0 C0.81678223 0.21430664 1.63356445 0.42861328 2.47509766 0.64941406 C44.73509778 11.79223505 79.90995651 38.45091894 102.19580078 76.015625 C111.14216226 91.49360573 117.67891994 108.40303368 121 126 C121.17732666 126.91378418 121.35465332 127.82756836 121.53735352 128.76904297 C123.31587642 139.28187842 123.33836015 149.7425202 123.31567383 160.37988281 C123.3124778 163.52182618 123.33617981 166.66285746 123.36132812 169.8046875 C123.36359828 171.81770716 123.36430594 173.83072932 123.36328125 175.84375 C123.372491 176.77505737 123.38170074 177.70636475 123.39118958 178.66589355 C123.35418573 183.8659353 122.92183764 187.51091154 120 192 C115.65456874 196.01952391 112.51378233 197.12134856 106.6794281 197.14476013 C105.57594025 197.15165863 104.47245239 197.15855713 103.33552551 197.16566467 C101.51899727 197.16958473 101.51899727 197.16958473 99.66577148 197.17358398 C97.7087894 197.18384825 95.75180732 197.1941147 93.79482567 197.20446312 C91.69097857 197.2146928 89.58713383 197.22254456 87.48327446 197.22979546 C83.10120053 197.24524231 78.71919891 197.2691895 74.33717346 197.29469299 C61.8766028 197.36591659 49.4159914 197.42575903 36.95532227 197.47680664 C30.07332631 197.50507516 23.19140298 197.54043332 16.30948311 197.58346039 C11.95045805 197.61028291 7.59151512 197.6281567 3.23242366 197.63949764 C-0.11016322 197.65073627 -3.45263408 197.67486555 -6.79516602 197.69702148 C-8.00820908 197.69761063 -9.22125214 197.69819977 -10.47105408 197.69880676 C-11.57172211 197.70852509 -12.67239014 197.71824341 -13.80641174 197.72825623 C-15.24686025 197.73460413 -15.24686025 197.73460413 -16.71640873 197.74108028 C-19.19755516 197.78226066 -19.19755516 197.78226066 -21 200 C-21 202.31 -21 204.62 -21 207 C-5.16 207.33 10.68 207.66 27 208 C22 213 22 213 19.60546875 215.32421875 C13.90671434 220.89408372 8.89993979 226.72807707 4 233 C-12.2318243 253.29910901 -37.4472928 265.09942243 -63 268 C-80.05251755 268.98599698 -95.96687663 267.08579056 -112 261 C-108.91035251 257.5907338 -105.63807079 254.96656853 -101.875 252.3125 C-76.37924354 233.95965654 -59.55538556 205.6231326 -53.82739258 174.74633789 C-48.79084734 142.23772775 -57.06439209 109.11755393 -76.4375 82.625 C-77.93556328 80.73175796 -79.45624906 78.85617673 -81 77 C-81.75796875 76.07832031 -82.5159375 75.15664063 -83.296875 74.20703125 C-96.63138907 58.75904027 -113.65292781 48.44828585 -132.59765625 41.2890625 C-136.11617416 39.95598453 -139.55118213 38.50254231 -143 37 C-139.96995765 32.84302072 -136.51019697 29.8092798 -132.375 26.8125 C-131.72474854 26.33981689 -131.07449707 25.86713379 -130.40454102 25.38012695 C-93.44841503 -0.86103854 -44.2090791 -12.33610744 0 0 Z " fill="#23D0AE" transform="translate(337,230)"/>
<path d="M0 0 C1.27617187 0.32871094 2.55234375 0.65742188 3.8671875 0.99609375 C19.23378892 5.19501947 32.74190535 12.9093842 45 23 C45.77472656 23.61101562 46.54945313 24.22203125 47.34765625 24.8515625 C67.8113032 41.81437391 80.86576088 68.66548558 83.82128906 94.80541992 C86.17211613 123.67370481 79.92686596 153.20798911 61.375 176.125 C59.92674725 177.75899054 58.46913708 179.3847609 57 181 C56.41347656 181.73863281 55.82695312 182.47726562 55.22265625 183.23828125 C39.53260412 202.56760149 15.68179623 212.78786652 -8 218 C-8.77520996 218.1750708 -9.55041992 218.3501416 -10.34912109 218.53051758 C-38.08670362 223.44296657 -66.8994472 215.41113802 -90 200 C-114.27415445 182.24930997 -131.67855671 156.56988351 -137.17333984 126.7277832 C-141.84216046 96.39474878 -134.57246017 66.89171938 -116.84375 41.96875 C-114.65529319 39.20939142 -112.3828531 36.59321734 -110 34 C-109.55285645 33.51047852 -109.10571289 33.02095703 -108.64501953 32.51660156 C-81.46504891 3.0879619 -39.09057341 -10.80019198 0 0 Z " fill="#7575FD" transform="translate(190,277)"/>
<path d="M0 0 C-0.78761719 0.51046875 -1.57523438 1.0209375 -2.38671875 1.546875 C-24.9786434 16.6259821 -43.42957922 38.02303426 -50 65 C-50.29519531 66.1859375 -50.59039062 67.371875 -50.89453125 68.59375 C-57.3798116 97.68733804 -52.56426789 127.77626175 -37.15820312 153.20605469 C-23.81384526 173.87518234 -4.64159784 188.68560399 18 198 C18 198.33 18 198.66 18 199 C17.46858398 199.13462646 16.93716797 199.26925293 16.38964844 199.40795898 C-9.27359297 206.02709695 -37.30356227 217.51808209 -56.04467773 237.14086914 C-60.14869778 241.33663537 -62.8697055 243.50366843 -68.86328125 243.67578125 C-71.01470958 243.58975739 -73.16491199 243.46712761 -75.3125 243.3125 C-77.62853508 243.23087113 -79.94499952 243.16067074 -82.26171875 243.1015625 C-83.97174072 243.05563965 -83.97174072 243.05563965 -85.71630859 243.00878906 C-116.42498825 242.92659483 -145.45946272 257.97617726 -167 279 C-167.64324219 279.58136719 -168.28648437 280.16273438 -168.94921875 280.76171875 C-186.5434116 297.04352426 -198.29993681 323.47087791 -201 347 C-205.14437204 346.50640063 -206.64522021 344.4845613 -209.1875 341.3125 C-227.5394359 317.95000265 -235.99696831 292.188813 -233.7265625 262.4140625 C-231.91116211 247.44557249 -226.5983332 234.77400809 -220.02978516 221.3762207 C-213.02002185 207.03046405 -208.53976705 193.45813215 -208.9453125 177.34765625 C-208.97063091 175.33268948 -208.99535088 173.31771512 -209.01953125 171.30273438 C-209.0687151 168.19660369 -209.12438275 165.09089555 -209.19189453 161.98510742 C-209.85713915 129.18645242 -201.38898776 101.72545286 -178.63427734 77.63427734 C-158.22644811 57.22644811 -131.50336048 48.22410758 -103.13647461 47.35131836 C-76.22802298 46.44402573 -54.35737285 37.44532699 -34.62109375 18.74609375 C-27.88171849 12.36200681 -9.81806877 -3.27268959 0 0 Z " fill="#E5ECFE" transform="translate(244,21)"/>
<path d="M0 0 C29.23911211 3.74007785 55.01689109 16.71374639 73.4375 40.09375 C89.5400894 62.50681362 97.41646772 89.79115013 93.17626953 117.33325195 C92.01659998 124.0414344 90.33916242 130.53021611 88.4375 137.0625 C82.66311211 157.02305583 83.77449754 175.14763458 89 195 C89.55808924 197.16295979 90.11192365 199.32689393 90.66088867 201.4921875 C91.15523403 203.43565 91.6611995 205.37614628 92.16796875 207.31640625 C98.10802896 233.61441927 91.67516415 260.45225069 78.09277344 283.28222656 C73.95904932 289.78018967 69.1184956 295.33879932 63 300 C62.98582031 298.88109375 62.97164062 297.7621875 62.95703125 296.609375 C61.76081825 248.52059019 43.38996728 204.64683301 9 171 C5.45828603 167.8214112 1.78074209 164.88769551 -2 162 C-2.92167969 161.26265625 -3.84335937 160.5253125 -4.79296875 159.765625 C-24.13593571 144.62538096 -47.22118791 134.71013188 -71 129 C-67.5130449 126.10751308 -63.6253639 124.30035195 -59.5625 122.375 C-32.71264317 109.25594829 -14.47888716 87.93219272 -4.27514648 60.01977539 C2.3387892 40.65292183 2.12809955 20.16919209 0 0 Z " fill="#E5ECFE" transform="translate(408,91)"/>
<path d="M0 0 C18.88034873 16.32628928 31.31174372 36.24783956 37.59179688 60.37646484 C37.96111328 61.79378906 37.96111328 61.79378906 38.33789062 63.23974609 C44.4730397 92.47690478 36.89097092 122.37100649 21.59179688 147.37646484 C19.13173325 150.92517731 16.46478128 154.15760659 13.59179688 157.37646484 C12.91761719 158.19244141 12.2434375 159.00841797 11.54882812 159.84912109 C-0.03016795 173.49504179 -15.14198841 182.35346013 -31.40820312 189.37646484 C-30.33844238 189.70686768 -30.33844238 189.70686768 -29.24707031 190.04394531 C-2.70630133 198.32994783 20.55517485 208.97691225 41.59179688 227.37646484 C42.10452148 227.8221582 42.61724609 228.26785156 43.14550781 228.72705078 C72.97908597 254.83367143 91.36893312 289.58467496 98.59179688 328.37646484 C98.77653564 329.2663208 98.96127441 330.15617676 99.15161133 331.07299805 C101.06602833 341.41598925 100.99905816 351.82773235 101.01733398 362.31567383 C101.02931102 365.56780602 101.07869865 368.81808584 101.12890625 372.06982422 C101.13836475 374.16551824 101.14560252 376.2612237 101.15039062 378.35693359 C101.16992294 379.31448044 101.18945526 380.27202728 101.20957947 381.2585907 C101.15878033 388.93380567 99.1008974 395.53913622 93.83616638 401.29631042 C86.19437609 408.45810812 78.60601094 408.81460583 68.54394531 408.76464844 C66.58917267 408.77253387 66.58917267 408.77253387 64.59490967 408.78057861 C61.03729897 408.79419977 57.47995063 408.78897673 53.92233562 408.77944136 C50.19481916 408.77182407 46.46732452 408.77889551 42.73980713 408.78359985 C36.48567688 408.78904868 30.23165313 408.78188594 23.97753906 408.76757812 C16.74568421 408.75122465 9.51408275 408.75656304 2.28223395 408.77305734 C-3.93193745 408.7866631 -10.14603252 408.78859722 -16.36021399 408.78074133 C-20.069757 408.77606345 -23.77918077 408.77544364 -27.48871613 408.7853508 C-31.61860735 408.7956118 -35.74805977 408.78139818 -39.87792969 408.76464844 C-41.10914551 408.77072113 -42.34036133 408.77679382 -43.60888672 408.78305054 C-44.73039124 408.77459106 -45.85189575 408.76613159 -47.00738525 408.75741577 C-47.98369022 408.75628469 -48.95999519 408.75515362 -49.96588516 408.75398827 C-52.40820312 408.37646484 -52.40820312 408.37646484 -54.22231674 407.00890541 C-55.91739669 404.67553072 -55.83039317 403.19106515 -55.40820312 400.37646484 C-53.73555097 398.08668301 -52.83917208 397.44410077 -50.00994396 397.00008392 C-49.05446321 396.99937141 -48.09898245 396.99865891 -47.11454773 396.9979248 C-45.46798691 396.9856208 -45.46798691 396.9856208 -43.78816223 396.97306824 C-41.98106026 396.98229057 -41.98106026 396.98229057 -40.13745117 396.99169922 C-38.19023084 396.98345182 -36.24301052 396.97520366 -34.29579031 396.96692657 C-32.20173499 396.96092353 -30.10779864 396.96231221 -28.01373863 396.96577454 C-23.6473049 396.97258002 -19.28113454 396.95672258 -14.91474915 396.93737793 C-5.64174804 396.89949668 3.63123027 396.88672451 12.90429688 396.87646484 C22.90491926 396.86539121 32.90542049 396.85000107 42.90595978 396.80575228 C47.24388672 396.78741539 51.58151307 396.78349691 55.91946948 396.79068756 C57.97068314 396.79184459 60.02174315 396.78619649 62.07293701 396.7775116 C64.57032601 396.76697763 67.06779192 396.7670518 69.56517029 396.77986145 C77.49894107 396.73708536 77.49894107 396.73708536 84.59179688 393.37646484 C87.76803645 389.87164877 88.7109586 386.75003228 88.75292969 382.08300781 C88.767341 380.78422195 88.767341 380.78422195 88.78204346 379.459198 C88.78629333 378.52181793 88.79054321 377.58443787 88.79492188 376.61865234 C88.80062195 375.64219757 88.80632202 374.6657428 88.81219482 373.65969849 C88.82165289 371.58336469 88.828182 369.50701583 88.83203125 367.43066406 C88.84161077 364.31205257 88.87257203 361.19413677 88.90429688 358.07568359 C88.96749713 346.13417667 88.19435601 335.0469126 85.59179688 323.37646484 C85.29849715 322.00091899 85.00569234 320.62526751 84.71337891 319.24951172 C79.77121708 296.73687594 69.20290802 275.16596705 54.59179688 257.37646484 C54.13546875 256.81475586 53.67914063 256.25304687 53.20898438 255.67431641 C30.11950736 227.3835334 -0.96292512 208.85874525 -36.40820312 200.37646484 C-37.55417969 200.07869141 -38.70015625 199.78091797 -39.88085938 199.47412109 C-79.25651419 190.78183514 -122.91808847 200.30544944 -156.55859375 221.74707031 C-163.20421054 226.16624495 -169.48829241 231.02035515 -175.40820312 236.37646484 C-172.69897413 238.1826175 -170.26637108 239.20890158 -167.21777344 240.27807617 C-136.83550142 250.949327 -113.17174528 271.88998262 -98.40820312 300.37646484 C-97.86421875 301.42318359 -97.32023438 302.46990234 -96.75976562 303.54833984 C-93.83027534 309.52628449 -91.56618451 315.57499711 -89.65820312 321.93896484 C-89.4594458 322.59872314 -89.26068848 323.25848145 -89.0559082 323.93823242 C-83.2140517 344.49866267 -83.41259056 366.89949533 -89.40820312 387.37646484 C-89.61719238 388.09592285 -89.82618164 388.81538086 -90.04150391 389.55664062 C-94.8847393 405.66085178 -102.61247733 420.45728224 -113.40820312 433.37646484 C-114.23964844 434.37162109 -115.07109375 435.36677734 -115.92773438 436.39208984 C-122.60185175 444.12470663 -130.12595907 450.42983173 -138.40820312 456.37646484 C-138.97410156 456.78525879 -139.54 457.19405273 -140.12304688 457.61523438 C-165.17857073 475.43040622 -196.91128819 480.94800354 -227.13085938 476.69287109 C-258.96532715 471.20583678 -288.37939546 453.31530165 -307.28320312 427.00146484 C-325.55408904 398.82094589 -334.83640847 366.02197336 -327.84570312 332.43896484 C-320.28724584 300.00549302 -301.66064572 270.61895594 -273.29589844 252.53662109 C-257.18704014 242.63629845 -241.08458705 237.16286083 -222.40820312 234.37646484 C-220.82265625 234.07289063 -220.82265625 234.07289063 -219.20507812 233.76318359 C-215.81848185 233.41825249 -212.81119947 233.44871888 -209.42382812 233.63037109 C-197.29980632 234.63085839 -197.29980632 234.63085839 -185.85742188 231.57568359 C-183.29114509 229.15071446 -183.29114509 229.15071446 -181.00195312 226.36083984 C-177.81974916 222.6993883 -174.31520247 220.12827182 -170.34570312 217.37646484 C-169.62092773 216.87244141 -168.89615234 216.36841797 -168.14941406 215.84912109 C-150.14114934 203.5538776 -130.56011256 194.69946192 -109.40820312 189.37646484 C-110.08882812 189.13154297 -110.76945313 188.88662109 -111.47070312 188.63427734 C-139.14931006 177.96034648 -160.3644792 156.26213115 -172.40820312 129.37646484 C-183.44015912 103.37586218 -184.17070107 72.44163808 -173.97070312 45.97021484 C-165.6480572 26.82812921 -154.24045708 10.92674979 -137.72070312 -1.99853516 C-137.17365723 -2.42811523 -136.62661133 -2.85769531 -136.06298828 -3.30029297 C-132.97726766 -5.65051305 -130.0867283 -7.38143575 -126.40820312 -8.62353516 C-126.40820312 -9.28353516 -126.40820312 -9.94353516 -126.40820312 -10.62353516 C-116.01385123 -15.87366632 -105.70912035 -19.79684578 -94.40820312 -22.62353516 C-92.97347656 -22.99478516 -92.97347656 -22.99478516 -91.50976562 -23.37353516 C-59.82816703 -30.06290495 -24.71823855 -20.52695421 0 0 Z M-146.22070312 20.25146484 C-159.71301065 35.91438125 -169.73406318 57.50621573 -170.40820312 78.37646484 C-170.43398437 79.04661621 -170.45976562 79.71676758 -170.48632812 80.40722656 C-171.26061044 102.9823952 -166.13997132 124.98678409 -152.40820312 143.37646484 C-151.78171875 144.22208984 -151.15523437 145.06771484 -150.50976562 145.93896484 C-135.36791864 165.56950164 -113.34350701 180.94224264 -88.37988281 184.68017578 C-59.15174471 188.26414845 -31.97481777 182.33661038 -8.40820312 164.37646484 C10.11497027 149.68808315 25.24625284 126.48966936 28.38525391 102.68310547 C30.92022224 74.37296261 26.33574142 48.08069953 8.84179688 25.25146484 C-7.00248353 6.39366444 -25.58745659 -5.3331026 -49.40820312 -11.62353516 C-50.10905029 -11.80972412 -50.80989746 -11.99591309 -51.53198242 -12.18774414 C-57.1769704 -13.57904036 -62.54214433 -13.97426317 -68.34570312 -13.93603516 C-69.71214966 -13.92757568 -69.71214966 -13.92757568 -71.10620117 -13.91894531 C-100.87316674 -13.39649097 -125.84316712 -1.2407398 -146.22070312 20.25146484 Z M-230.40820312 246.37646484 C-231.64828125 246.63685547 -232.88835937 246.89724609 -234.16601562 247.16552734 C-254.67626148 252.25739812 -271.30092462 262.81974313 -286.40820312 277.37646484 C-287.065625 277.97072266 -287.72304688 278.56498047 -288.40039062 279.17724609 C-301.77066012 291.59249634 -310.59406866 310.05287492 -315.40820312 327.37646484 C-315.72789062 328.49794922 -316.04757812 329.61943359 -316.37695312 330.77490234 C-323.52321968 360.22016732 -316.50375122 390.58463049 -301.05053711 416.07885742 C-296.65677914 422.91618276 -291.1048491 428.6234961 -285.40820312 434.37646484 C-284.80492187 435.04033203 -284.20164062 435.70419922 -283.58007812 436.38818359 C-267.85647712 453.42208468 -241.45992313 465.30426723 -218.39477539 466.53759766 C-186.00672279 466.96661152 -159.57365821 460.72897219 -134.40820312 439.37646484 C-133.68375 438.80927734 -132.95929688 438.24208984 -132.21289062 437.65771484 C-113.21545883 422.13293187 -99.62140389 395.32149066 -96.65429688 371.09521484 C-94.43100176 337.49875531 -101.18385998 308.30486518 -123.40820312 282.37646484 C-123.92382812 281.71646484 -124.43945312 281.05646484 -124.97070312 280.37646484 C-140.62857232 260.96070705 -165.58785485 250.13565328 -189.40820312 245.37646484 C-190.32214844 245.18052734 -191.23609375 244.98458984 -192.17773438 244.78271484 C-197.14638079 244.15787902 -202.09295578 244.19205105 -207.09570312 244.18896484 C-208.63387695 244.1705957 -208.63387695 244.1705957 -210.203125 244.15185547 C-217.15853688 244.13867402 -223.61851437 244.89258986 -230.40820312 246.37646484 Z " fill="#020404" transform="translate(370.408203125,29.62353515625)"/>
<path d="M0 0 C4.43208453 0.74856277 6.73006444 1.81611538 10 5 C13.31308795 10.14099854 13.68007154 14.41882242 12.54272461 20.40795898 C11.92568553 23.05574058 11.25645994 25.68386386 10.5625 28.3125 C10.33240234 29.21806641 10.10230469 30.12363281 9.86523438 31.05664062 C8.1625504 37.67489919 8.1625504 37.67489919 7 40 C6.90527088 41.51845202 6.8701159 43.04110384 6.875 44.5625 C6.87242187 45.36816406 6.86984375 46.17382812 6.8671875 47.00390625 C6.77988609 48.99942021 6.77988609 48.99942021 8 50 C9.72784918 50.10222519 11.4598142 50.13570377 13.19067383 50.1418457 C14.29884964 50.14888016 15.40702545 50.15591461 16.54878235 50.16316223 C17.75600449 50.16732651 18.96322662 50.17149078 20.20703125 50.17578125 C22.73763853 50.19897923 25.26823752 50.22309656 27.79882812 50.24804688 C31.80840874 50.28319492 35.81768118 50.3141995 39.82739258 50.32592773 C43.68348511 50.34136636 47.53867571 50.3815554 51.39453125 50.42578125 C53.19625542 50.42291862 53.19625542 50.42291862 55.03437805 50.41999817 C56.15201035 50.43648911 57.26964264 50.45298004 58.42114258 50.4699707 C59.89554558 50.47877007 59.89554558 50.47877007 61.3997345 50.48774719 C64.72612369 51.14304651 65.94931677 52.34743606 68 55 C67.9375 57.625 67.9375 57.625 67 60 C63.83759418 62.10827055 62.49342531 62.33817465 58.8125 62.625 C57.91144531 62.69976562 57.01039063 62.77453125 56.08203125 62.8515625 C55.39496094 62.90054688 54.70789063 62.94953125 54 63 C53.83322718 66.41656024 53.83322718 66.41656024 54 70 C56.46526886 72.46526886 58.71481573 72.95153693 62 74 C63 75 63 75 63.25 77.875 C63 81 63 81 61.8046875 82.65625 C59.45178246 84.40819661 57.78286629 84.46392286 54.875 84.625 C51.63088186 84.56533788 51.63088186 84.56533788 49 86 C48.95919217 87.99958364 48.95745644 90.00045254 49 92 C50.11375 92.45375 51.2275 92.9075 52.375 93.375 C56 95 56 95 58 97 C58.35860891 99.7971495 58.50256047 101.3384014 56.765625 103.625 C54.56532225 105.33851011 53.19795411 105.42152129 50.4375 105.5625 C46.77798662 105.66968944 46.77798662 105.66968944 44 108 C43.68291229 111.02080135 43.68291229 111.02080135 45 114 C46.84345527 114.91177771 46.84345527 114.91177771 49 115.5 C51.171875 116.16015625 51.171875 116.16015625 53 117 C54.25 119.9375 54.25 119.9375 54 123 C52.4430542 125.1630249 52.4430542 125.1630249 50 127 C47.40778615 127.3746353 45.24690198 127.50823593 42.66113281 127.45410156 C41.92903091 127.45468567 41.19692902 127.45526978 40.44264221 127.45587158 C38.02898314 127.45309052 35.61656761 127.4219996 33.203125 127.390625 C31.52733027 127.38316264 29.8515268 127.37746968 28.17572021 127.37347412 C23.76963111 127.3582173 19.36407123 127.3189354 14.95819092 127.2746582 C10.46048136 127.23370635 5.9626861 127.21546331 1.46484375 127.1953125 C-7.35700309 127.15244093 -16.1784575 127.08418923 -25 127 C-25.00586624 126.32792511 -25.01173248 125.65585022 -25.01777649 124.96340942 C-25.08155475 117.98818241 -25.16593329 111.01342349 -25.26245117 104.03857422 C-25.29577046 101.43316812 -25.32378026 98.82768862 -25.34643555 96.22216797 C-25.37985254 92.48373027 -25.43216246 88.74596959 -25.48828125 85.0078125 C-25.49467117 83.83695099 -25.5010611 82.66608948 -25.50764465 81.45974731 C-25.52743881 80.37877777 -25.54723297 79.29780823 -25.56762695 78.18408203 C-25.58428154 76.75178757 -25.58428154 76.75178757 -25.60127258 75.29055786 C-25.73285263 74.53467377 -25.86443268 73.77878967 -26 73 C-28.76988076 70.68456793 -28.76988076 70.68456793 -31.625 71.3125 C-33.93501965 71.7741514 -33.93501965 71.7741514 -35 73 C-35.12299166 74.68709347 -35.17785258 76.37920903 -35.20532227 78.07055664 C-35.22526749 79.15160172 -35.24521271 80.23264679 -35.26576233 81.34645081 C-35.29083107 83.110485 -35.29083107 83.110485 -35.31640625 84.91015625 C-35.33718735 86.10732773 -35.35796844 87.30449921 -35.37937927 88.53794861 C-35.44500279 92.37940487 -35.50381903 96.22093201 -35.5625 100.0625 C-35.60567305 102.65951267 -35.64928693 105.25651806 -35.69335938 107.85351562 C-35.80069716 114.23560117 -35.90243931 120.61775793 -36 127 C-39.47914941 127.02887814 -42.95826831 127.04675687 -46.4375 127.0625 C-47.92733398 127.07506836 -47.92733398 127.07506836 -49.44726562 127.08789062 C-50.39150391 127.09111328 -51.33574219 127.09433594 -52.30859375 127.09765625 C-53.18314209 127.10289307 -54.05769043 127.10812988 -54.95874023 127.11352539 C-57 127 -57 127 -58 126 C-58.09952293 123.85799676 -58.12799679 121.71267295 -58.12939453 119.56835938 C-58.13114685 118.89682327 -58.13289917 118.22528717 -58.13470459 117.53340149 C-58.1391223 115.30349172 -58.13618542 113.07366064 -58.1328125 110.84375 C-58.13348556 109.30057764 -58.13445561 107.75740539 -58.13571167 106.2142334 C-58.13718853 102.9759826 -58.13503447 99.73775933 -58.13037109 96.49951172 C-58.1246738 92.33957477 -58.12795287 88.17970234 -58.13394356 84.01976776 C-58.13754949 80.83200592 -58.13641044 77.64425949 -58.13381577 74.45649719 C-58.13314658 72.92222588 -58.13397461 71.38795318 -58.13629532 69.85368347 C-58.13882238 67.71296459 -58.13498054 65.57235158 -58.12939453 63.43164062 C-58.12859894 62.21109985 -58.12780334 60.99055908 -58.12698364 59.73303223 C-58 57 -58 57 -57 56 C-54.77959597 55.8777273 -52.55558174 55.82017308 -50.33203125 55.7890625 C-48.94985839 55.76097212 -47.56769711 55.73230754 -46.18554688 55.703125 C-44.00448193 55.66201439 -41.82362796 55.6251352 -39.64233398 55.59863281 C-37.53844232 55.57084602 -35.43553691 55.52495419 -33.33203125 55.4765625 C-31.44061401 55.4468335 -31.44061401 55.4468335 -29.51098633 55.41650391 C-24.7481632 54.85149617 -21.36061331 53.39522774 -18.00390625 49.953125 C-15.09854108 45.67153423 -12.50421988 41.24097244 -9.9375 36.75 C-9.14375977 35.39455078 -9.14375977 35.39455078 -8.33398438 34.01171875 C-3.39301217 25.39446484 -0.61768969 17.88668379 -0.3125 7.9375 C-0.27833984 7.16728516 -0.24417969 6.39707031 -0.20898438 5.60351562 C-0.12779425 3.73614268 -0.06219857 1.86810194 0 0 Z " fill="#FCC5B1" transform="translate(158,308)"/>
<path d="M0 0 C7.00850566 1.74074897 12.46693143 6.6761328 16.40625 12.59765625 C21.03623526 21.82580557 18.87515157 33.23378166 15.87890625 42.64453125 C15.64240356 43.41587402 15.40590088 44.1872168 15.16223145 44.98193359 C14.58600646 46.85666305 13.99743785 48.72759136 13.40625 50.59765625 C14.28162415 50.58100166 14.28162415 50.58100166 15.17468262 50.56401062 C21.27450177 50.45298822 27.37403174 50.37781204 33.47460938 50.32299805 C35.74816557 50.29792682 38.02164174 50.26386095 40.29492188 50.22045898 C43.57181594 50.1594835 46.84764011 50.13137165 50.125 50.109375 C51.13365112 50.08356857 52.14230225 50.05776215 53.18151855 50.03117371 C59.86936174 50.02854384 64.23832356 51.26595891 69.40625 55.59765625 C72.69067709 59.12841537 73.67771453 61.82161223 73.90625 66.53515625 C73.71598278 71.58865368 72.20203274 74.44634248 69.40625 78.59765625 C69.07625 79.58765625 68.74625 80.57765625 68.40625 81.59765625 C68.73625 82.25765625 69.06625 82.91765625 69.40625 83.59765625 C70.00212851 89.32725728 69.5893473 93.64617156 66.40625 98.59765625 C65.82875 99.13390625 65.25125 99.67015625 64.65625 100.22265625 C64.24375 100.67640625 63.83125 101.13015625 63.40625 101.59765625 C63.70012011 102.9402393 64.04061339 104.27281711 64.40625 105.59765625 C65.25258679 112.02981582 64.14510009 115.57017171 60.453125 120.828125 C59.16320102 122.62445804 59.16320102 122.62445804 59.59375 125.16015625 C59.861875 125.96453125 60.13 126.76890625 60.40625 127.59765625 C60.97197358 133.59432621 59.7206961 137.6794459 56.40625 142.59765625 C52.37074241 146.43630981 49.26255213 147.71460603 43.75798035 147.7515564 C42.80331375 147.76015686 41.84864716 147.76875732 40.86505127 147.77761841 C39.81927917 147.78187836 38.77350708 147.78613831 37.69604492 147.79052734 C36.59333755 147.79870483 35.49063019 147.80688232 34.35450745 147.81530762 C30.69858343 147.84015842 27.04269819 147.85667568 23.38671875 147.87109375 C22.13924677 147.87641743 20.89177479 147.8817411 19.60650063 147.8872261 C14.36416428 147.90845307 9.12183376 147.92758338 3.87946606 147.9388485 C-3.62611214 147.95508494 -11.13117249 147.98826278 -18.63655549 148.04524934 C-24.55520601 148.08865207 -30.4737412 148.10459675 -36.39255333 148.11098099 C-38.90798316 148.11770486 -41.42340512 148.13295613 -43.93873024 148.1568718 C-47.45800938 148.18842762 -50.97597833 148.18857386 -54.49536133 148.18115234 C-56.05491043 148.20576035 -56.05491043 148.20576035 -57.64596558 148.23086548 C-62.20617424 148.19147914 -65.55589038 148.14548164 -69.22489929 145.24868774 C-72.88212383 141.15580954 -72.75440661 137.5969914 -72.78662109 132.37573242 C-72.79888733 131.27762489 -72.79888733 131.27762489 -72.81140137 130.15733337 C-72.8362098 127.7351055 -72.85275924 125.31293603 -72.8671875 122.890625 C-72.87251118 122.06239038 -72.87783485 121.23415577 -72.88331985 120.38082314 C-72.9100311 115.99729971 -72.92941283 111.61380458 -72.94384766 107.23022461 C-72.95718986 103.6052936 -72.98504983 99.98092513 -73.02587891 96.35620117 C-73.07521475 91.97603152 -73.09996957 87.5963723 -73.10707474 83.21593666 C-73.11378338 81.54897807 -73.12899554 79.88203069 -73.15296555 78.21523094 C-73.18464962 75.87880693 -73.18465019 73.54434684 -73.17724609 71.20776367 C-73.19365143 70.52339233 -73.21005676 69.839021 -73.22695923 69.13391113 C-73.15551841 63.60836184 -71.34905176 61.35054511 -67.59375 57.59765625 C-64.61667318 56.10911784 -61.8923755 56.46938554 -58.57421875 56.45703125 C-57.1451664 56.43869985 -55.7161295 56.41912923 -54.28710938 56.3984375 C-52.03546131 56.3694979 -49.78480496 56.34765702 -47.53295898 56.34716797 C-45.35831868 56.34382347 -43.18596109 56.30921996 -41.01171875 56.26953125 C-39.05915161 56.2555127 -39.05915161 56.2555127 -37.06713867 56.24121094 C-31.9308648 55.28955437 -29.9404618 52.52891458 -27.0480957 48.38110352 C-26.62616943 47.64947998 -26.20424316 46.91785645 -25.76953125 46.1640625 C-25.29837891 45.35001953 -24.82722656 44.53597656 -24.34179688 43.69726562 C-23.63120117 42.44139648 -23.63120117 42.44139648 -22.90625 41.16015625 C-22.42091797 40.32677734 -21.93558594 39.49339844 -21.43554688 38.63476562 C-16.48939236 30.00457878 -15.25315124 23.33521452 -15.29101562 13.49804688 C-15.1829289 9.0943844 -15.06113757 7.18596 -12.23828125 3.6328125 C-7.58060047 0.04839347 -5.68699065 -0.80319511 0 0 Z M-4.59375 10.59765625 C-4.63113281 11.72042969 -4.66851562 12.84320313 -4.70703125 14 C-4.77275944 15.51174838 -4.83920431 17.02346572 -4.90625 18.53515625 C-4.92880859 19.27056641 -4.95136719 20.00597656 -4.97460938 20.76367188 C-5.42384618 30.11596536 -8.83075394 37.61311538 -13.40625 45.66015625 C-13.81939453 46.41103516 -14.23253906 47.16191406 -14.65820312 47.93554688 C-22.82857483 62.50121723 -22.82857483 62.50121723 -30.59375 65.59765625 C-34.10473633 66.01416016 -34.10473633 66.01416016 -37.92578125 66.07421875 C-38.9416053 66.09758804 -38.9416053 66.09758804 -39.97795105 66.12142944 C-42.12070727 66.16860525 -44.26314188 66.19661781 -46.40625 66.22265625 C-48.5669877 66.25915276 -50.727543 66.29968853 -52.8881073 66.3453064 C-54.83517041 66.38487723 -56.78246174 66.41269631 -58.72973633 66.43994141 C-61.49105706 66.27257758 -61.49105706 66.27257758 -62.59375 67.59765625 C-62.69327293 69.73965949 -62.72174679 71.8849833 -62.72314453 74.02929688 C-62.72489685 74.70083298 -62.72664917 75.37236908 -62.72845459 76.06425476 C-62.7328723 78.29416453 -62.72993542 80.52399561 -62.7265625 82.75390625 C-62.72723556 84.29707861 -62.72820561 85.84025086 -62.72946167 87.38342285 C-62.73093853 90.62167365 -62.72878447 93.85989692 -62.72412109 97.09814453 C-62.7184238 101.25808148 -62.72170287 105.41795391 -62.72769356 109.57788849 C-62.73129949 112.76565033 -62.73016044 115.95339676 -62.72756577 119.14115906 C-62.72689658 120.67543037 -62.72772461 122.20970307 -62.73004532 123.74397278 C-62.73257238 125.88469166 -62.72873054 128.02530467 -62.72314453 130.16601562 C-62.72234894 131.3865564 -62.72155334 132.60709717 -62.72073364 133.86462402 C-62.90524888 136.5106661 -62.90524888 136.5106661 -61.59375 137.59765625 C-60.03202255 137.68451228 -58.46645656 137.70467844 -56.90234375 137.6953125 C-55.95810547 137.69208984 -55.01386719 137.68886719 -54.04101562 137.68554688 C-52.55118164 137.67297852 -52.55118164 137.67297852 -51.03125 137.66015625 C-50.03416016 137.65564453 -49.03707031 137.65113281 -48.00976562 137.64648438 C-45.53770151 137.63465632 -43.06575482 137.61817474 -40.59375 137.59765625 C-40.58566315 136.92558136 -40.57757629 136.25350647 -40.56924438 135.56106567 C-40.48339716 128.58592325 -40.38390297 121.61107156 -40.27636719 114.63623047 C-40.23800918 112.03081126 -40.20316855 109.42533785 -40.171875 106.81982422 C-40.12637249 103.08150822 -40.06835374 99.3435676 -40.0078125 95.60546875 C-39.99626129 94.43460724 -39.98471008 93.26374573 -39.97280884 92.05740356 C-39.95293915 90.97643402 -39.93306946 89.89546448 -39.91259766 88.78173828 C-39.89927399 87.82687531 -39.88595032 86.87201233 -39.8722229 85.88821411 C-39.59375 83.59765625 -39.59375 83.59765625 -37.59375 81.59765625 C-32.02556818 82.16583807 -32.02556818 82.16583807 -30.59375 83.59765625 C-30.47075834 85.28474972 -30.41589742 86.97686528 -30.38842773 88.66821289 C-30.3585099 90.2897805 -30.3585099 90.2897805 -30.32798767 91.94410706 C-30.31127518 93.12012985 -30.29456268 94.29615265 -30.27734375 95.5078125 C-30.25656265 96.70498398 -30.23578156 97.90215546 -30.21437073 99.13560486 C-30.14874721 102.97706112 -30.08993097 106.81858826 -30.03125 110.66015625 C-29.98807695 113.25716892 -29.94446307 115.85417431 -29.90039062 118.45117188 C-29.79305284 124.83325742 -29.69131069 131.21541418 -29.59375 137.59765625 C-19.8841295 137.69032094 -10.17461413 137.76140323 -0.46464157 137.80490494 C4.04407617 137.82578327 8.55249148 137.85410514 13.06103516 137.89941406 C17.41175053 137.94286344 21.76217493 137.9667915 26.11309052 137.97716522 C27.7733188 137.98455827 29.43353109 137.99899523 31.09363556 138.02057648 C33.41856849 138.04959945 35.74229799 138.05361288 38.06738281 138.05175781 C38.7543071 138.06613892 39.44123138 138.08052002 40.14897156 138.09533691 C43.47131693 138.06663823 45.16282596 137.78069104 47.8493042 135.76068115 C49.6692866 133.62472902 49.6692866 133.62472902 49.65625 130.53515625 C48.75844789 127.51124165 48.75844789 127.51124165 46.578125 126.7578125 C45.12854569 126.31720296 43.67801605 125.8797081 42.2265625 125.4453125 C40.40625 124.59765625 40.40625 124.59765625 39.28125 121.53515625 C39.40625 118.59765625 39.40625 118.59765625 41.40625 116.59765625 C43.67904815 116.25695216 45.92047264 116.15623796 48.21484375 116.0390625 C50.86715787 115.50481741 51.77941811 114.7274204 53.40625 112.59765625 C53.82691874 109.79319796 53.86991572 108.29315483 52.28125 105.91015625 C49.81119197 104.18111563 47.28749528 103.430016 44.40625 102.59765625 C44.36370644 100.59810879 44.36544217 98.59723989 44.40625 96.59765625 C46.39608893 94.60781732 50.26167617 95.22374051 52.9609375 95.07421875 C55.78499058 94.52384419 56.73043605 93.90667677 58.40625 91.59765625 C58.8230052 88.55554194 58.8230052 88.55554194 58.40625 85.59765625 C55.94098114 83.13238739 53.69143427 82.64611932 50.40625 81.59765625 C49.40625 80.59765625 49.40625 80.59765625 49.34375 77.03515625 C49.364375 75.90078125 49.385 74.76640625 49.40625 73.59765625 C50.08171875 73.571875 50.7571875 73.54609375 51.453125 73.51953125 C57.0802923 73.19859615 57.0802923 73.19859615 62.09375 70.84765625 C63.63708976 68.65366175 63.63708976 68.65366175 63.34375 65.97265625 C62.53969454 63.27475864 62.53969454 63.27475864 59.40625 61.59765625 C56.84740505 61.27606542 56.84740505 61.27606542 53.94091797 61.29467773 C52.26435623 61.26971474 52.26435623 61.26971474 50.55392456 61.24424744 C48.74445847 61.23162621 48.74445847 61.23162621 46.8984375 61.21875 C45.6620755 61.20175552 44.4257135 61.18476105 43.15188599 61.16725159 C39.86764608 61.12307032 36.58345257 61.08676855 33.29907227 61.05505371 C28.66233979 61.00933155 24.02574493 60.95354682 19.38919067 60.89234924 C16.9197515 60.8602667 14.45023811 60.83341648 11.98068237 60.81211853 C10.86927887 60.79862869 9.75787537 60.78513885 8.61279297 60.77124023 C7.62922821 60.76172836 6.64566345 60.75221649 5.6322937 60.74241638 C3.40625 60.59765625 3.40625 60.59765625 2.40625 59.59765625 C1.55715652 51.67278373 3.85740377 44.95436014 6.21484375 37.48828125 C8.25609725 30.987662 10.06936737 24.28173638 6.78125 17.91015625 C4.60288797 14.4681892 2.01721753 12.51838366 -1.59375 10.59765625 C-2.58375 10.59765625 -3.57375 10.59765625 -4.59375 10.59765625 Z " fill="#030203" transform="translate(162.59375,297.40234375)"/>
<path d="M0 0 C1.93627769 -0.10807131 3.87427756 -0.1856225 5.8125 -0.25 C7.43091797 -0.31960938 7.43091797 -0.31960938 9.08203125 -0.390625 C12 0 12 0 13.609375 1.984375 C14.29773438 2.98210937 14.29773438 2.98210937 15 4 C17.131226 4.62997202 17.131226 4.62997202 19.4375 4.5 C20.19933594 4.5103125 20.96117187 4.520625 21.74609375 4.53125 C24.18441492 4.17545183 24.18441492 4.17545183 25.89453125 1.984375 C28 0 28 0 31.015625 -0.390625 C32.61664063 -0.32101562 32.61664063 -0.32101562 34.25 -0.25 C35.32765625 -0.21390625 36.4053125 -0.1778125 37.515625 -0.140625 C38.33546875 -0.09421875 39.1553125 -0.0478125 40 0 C40.495 1.98 40.495 1.98 41 4 C56.84 4.33 72.68 4.66 89 5 C84 10 84 10 81.60546875 12.32421875 C75.90671434 17.89408372 70.89993979 23.72807707 66 30 C49.7681757 50.29910901 24.5527072 62.09942243 -1 65 C-18.05251755 65.98599698 -33.96687663 64.08579056 -50 58 C-46.91035251 54.5907338 -43.63807079 51.96656853 -39.875 49.3125 C-23.93998314 37.84185113 -13.21664121 24.09902478 -4 7 C-2.67840514 4.65973634 -1.34011951 2.32974622 0 0 Z " fill="#E5ECFE" transform="translate(275,433)"/>
<path d="M0 0 C-1.02738281 0.49628906 -2.05476563 0.99257813 -3.11328125 1.50390625 C-32.33396545 15.75332442 -49.87966398 34.93353108 -62 65 C-71.22751635 93.73183185 -66.41225815 122.96463367 -53.30859375 149.4140625 C-42.15881054 169.77920869 -23.87203852 184.42964132 -3 194 C-3 194.33 -3 194.66 -3 195 C-21.9696229 195.92393902 -41.2297469 181.53051173 -54.71484375 169.59765625 C-72.10621878 153.06379124 -84.28166294 128.3792087 -85.25390625 104.2734375 C-85.44619765 95.03235652 -84.93352986 86.06061086 -83 77 C-82.77828125 75.85789062 -82.5565625 74.71578125 -82.328125 73.5390625 C-76.41765832 47.38803541 -59.01015629 26.66483954 -37.12109375 12.08203125 C-29.28239612 7.25083393 -9.12275549 -4.56137774 0 0 Z " fill="#56E999" transform="translate(285,18)"/>
<path d="M0 0 C0 0.66 0 1.32 0 2 C-1.58224899 3.08591613 -3.21920412 4.0924146 -4.875 5.0625 C-10.89791993 8.79207734 -15.89659383 13.11269897 -21 18 C-21.75023437 18.67546875 -22.50046875 19.3509375 -23.2734375 20.046875 C-41.20722593 36.78507754 -54.24936038 64.60214489 -55.4377594 89.01748657 C-55.55180139 92.63752409 -55.57576945 96.25337502 -55.5625 99.875 C-55.56268127 100.63879974 -55.56286255 101.40259949 -55.56304932 102.18954468 C-55.51721487 115.81427661 -53.67377961 128.13136253 -49 141 C-48.63962646 142.03157227 -48.63962646 142.03157227 -48.27197266 143.08398438 C-40.4189431 165.07024406 -24.23784198 183.72956204 -5.19921875 196.7734375 C-2.36351177 198.74700646 0.3319545 200.80749732 3 203 C-14.75744569 200.35596857 -32.87203854 182.51026283 -43.53515625 168.84375 C-61.65362039 143.73273967 -69.90068081 113.49493928 -65.30859375 82.69921875 C-61.62430273 62.1268901 -52.15066557 42.39992176 -38 27 C-37.55285645 26.51047852 -37.10571289 26.02095703 -36.64501953 25.51660156 C-28.48335027 16.67969637 -12.5359781 0 0 0 Z " fill="#9191F6" transform="translate(118,284)"/>
<path d="M0 0 C1.12591553 0.00523682 2.25183105 0.01047363 3.41186523 0.01586914 C4.62680664 0.0190918 5.84174805 0.02231445 7.09350586 0.02563477 C8.37290039 0.03401367 9.65229492 0.04239258 10.97045898 0.05102539 C12.2537207 0.05553711 13.53698242 0.06004883 14.85913086 0.06469727 C18.04211921 0.07652994 21.22501661 0.09301471 24.40795898 0.11352539 C24.5428529 2.38274075 24.63989894 4.65423209 24.72045898 6.92602539 C24.7784668 8.1905957 24.83647461 9.45516602 24.89624023 10.75805664 C24.73510742 11.86536133 24.57397461 12.97266602 24.40795898 14.11352539 C23.17575371 14.79594048 23.17575371 14.79594048 21.9186554 15.49214172 C19.18642589 16.85755277 19.18642589 16.85755277 18.76872253 19.52433777 C18.7620607 20.47698013 18.75539886 21.4296225 18.74853516 22.41113281 C18.72889206 23.49202682 18.70924896 24.57292084 18.68901062 25.68656921 C18.69294327 26.85226944 18.69687592 28.01796967 18.70092773 29.21899414 C18.68580643 30.41333572 18.67068512 31.60767731 18.65510559 32.83821106 C18.61205894 36.65933869 18.60337365 40.47967894 18.59545898 44.30102539 C18.57232808 46.8889372 18.54696571 49.4768301 18.51928711 52.06469727 C18.4562669 58.41431396 18.42146749 64.76362085 18.40795898 71.11352539 C14.92880958 71.14240353 11.44969068 71.16028226 7.97045898 71.17602539 C6.480625 71.18859375 6.480625 71.18859375 4.96069336 71.20141602 C4.01645508 71.20463867 3.0722168 71.20786133 2.09936523 71.21118164 C1.22481689 71.21641846 0.35026855 71.22165527 -0.55078125 71.22705078 C-2.59204102 71.11352539 -2.59204102 71.11352539 -3.59204102 70.11352539 C-3.69156395 67.97152216 -3.7200378 65.82619834 -3.72143555 63.68188477 C-3.72318787 63.01034866 -3.72494019 62.33881256 -3.72674561 61.64692688 C-3.73116331 59.41701711 -3.72822644 57.18718603 -3.72485352 54.95727539 C-3.72552658 53.41410303 -3.72649662 51.87093078 -3.72775269 50.32775879 C-3.72922955 47.08950799 -3.72707548 43.85128472 -3.72241211 40.61303711 C-3.71671482 36.45310016 -3.71999389 32.29322773 -3.72598457 28.13329315 C-3.7295905 24.94553131 -3.72845145 21.75778488 -3.72585678 18.57002258 C-3.7251876 17.03575127 -3.72601563 15.50147857 -3.72833633 13.96720886 C-3.73086339 11.82648998 -3.72702156 9.68587697 -3.72143555 7.54516602 C-3.72063995 6.32462524 -3.71984436 5.10408447 -3.71902466 3.84655762 C-3.54752283 0.15537328 -3.54752283 0.15537328 0 0 Z " fill="#F12472" transform="translate(103.592041015625,363.886474609375)"/>
<path d="M0 0 C-1.29357422 0.47566406 -1.29357422 0.47566406 -2.61328125 0.9609375 C-25.70297585 9.78719879 -46.4624286 22.4624286 -64 40 C-68.09176955 39.69690596 -71.46165096 39.12300942 -75 37 C-71.96995765 32.84302072 -68.51019697 29.8092798 -64.375 26.8125 C-63.72474854 26.33981689 -63.07449707 25.86713379 -62.40454102 25.38012695 C-47.3952411 14.72258338 -30.91965075 6.99426093 -13.375 1.5625 C-12.50891113 1.29083008 -11.64282227 1.01916016 -10.75048828 0.73925781 C-9.93306152 0.4965918 -9.11563477 0.25392578 -8.2734375 0.00390625 C-7.54560059 -0.21450928 -6.81776367 -0.4329248 -6.06787109 -0.65795898 C-3.74255159 -1.04258385 -2.22370272 -0.72212381 0 0 Z " fill="#54E496" transform="translate(269,230)"/>
<path d="M0 0 C2.5625 1.6875 2.5625 1.6875 4 4 C3.9375 6.625 3.9375 6.625 3 9 C-0.13411302 11.08940868 -0.97450472 11.27364412 -4.5625 11.25 C-5.74005859 11.25773437 -5.74005859 11.25773437 -6.94140625 11.265625 C-9 11 -9 11 -11 9 C-11.32339354 5.96010077 -11.45670212 3.85631647 -10 1.125 C-6.78105257 -0.68565793 -3.54272932 -0.64025229 0 0 Z " fill="#040A09" transform="translate(299,427)"/>
<path d="M0 0 C-3.3 1.32 -6.6 2.64 -10 4 C-10 3.34 -10 2.68 -10 2 C-10.66 1.67 -11.32 1.34 -12 1 C-10.37681021 0.63762737 -8.7513642 0.28534843 -7.125 -0.0625 C-6.22007812 -0.25972656 -5.31515625 -0.45695312 -4.3828125 -0.66015625 C-2 -1 -2 -1 0 0 Z " fill="#46CB89" transform="translate(285,18)"/>
<path d="M0 0 C-2.97 1.65 -5.94 3.3 -9 5 C-6.64389875 0.2877975 -5.23968794 -1.74656265 0 0 Z " fill="#DBE2F1" transform="translate(244,21)"/>
</svg>
