<svg id="ME" xmlns="http://www.w3.org/2000/svg" xmlns:xlink="http://www.w3.org/1999/xlink" viewBox="0 0 4773 1791"><defs><style>.cls-1{fill:#51b38f;opacity:0.89;}.cls-2{fill:#fff;opacity:0.24;}.cls-3{fill:#424142;}</style></defs><path class="cls-1" d="M36,1791S502,1417.64,245.85,974.5C-62,441.83,95.33,10.91,957.63,33.68s935.71,179.7,1390.8,178.43S3316.05,22.47,3715.7,53.32c500.38,38.62,968.26,486.91,1027.94,891,50.59,342.5-47.84,843.86-47.84,843.86Z"/><path class="cls-2" d="M134.2,1789.51s457.71-347.59,206.11-760.15C37.89,533.45,192.45,132.27,1039.55,153.48s919.21,167.29,1366.27,166.11S3356.39,143,3749,171.76c491.55,36,951.18,453.31,1009.81,829.5,49.69,318.87-47,785.62-47,785.62Z"/><path class="cls-3" d="M2174.75,837.46v25.77h62.7v48.09h-62.7v59.77h-59.51v-186h129.91v52.34Z"/><path class="cls-3" d="M2326.18,785.12v186h-59.77v-186Z"/><path class="cls-3" d="M2481.87,916.36v54.73H2352.75v-186h59.78V916.36Z"/><path class="cls-3" d="M2684.58,878.11c0,55-42.24,96.43-98,96.43s-98-41.44-98-96.43c0-54.73,42.25-96.18,98-96.18S2684.58,823.38,2684.58,878.11Zm-59.78,0c0-22.32-16.2-38.26-38.25-38.26s-38.26,15.94-38.26,38.26c0,22.58,16.21,38.25,38.26,38.25S2624.8,900.69,2624.8,878.11Z"/><path class="cls-3" d="M2845.85,911.85c0,33.47-24.45,62.69-74.92,62.69-35.07,0-72-12.48-79.71-49.67l49.42-15.41c1.06,9.56,13.28,16.73,27.36,16.73,10.37,0,18.07-4,18.07-11.15,0-9.3-11.42-9.83-30-14.35-34-8.24-59-20.19-59-58.45,0-36.4,32.15-60.31,73.06-60.31,32.68,0,62.43,16.21,69.07,48.89l-49.15,11.95c-2.12-7.44-9.29-12.48-19.39-12.48-10.63,0-16.2,4.25-16.2,10.62,0,9,13.81,9.83,28.16,13.82C2828.05,867.21,2845.85,880.5,2845.85,911.85Z"/><path class="cls-3" d="M3051.21,878.11c0,55-42.24,96.43-98,96.43s-98-41.44-98-96.43c0-54.73,42.25-96.18,98-96.18S3051.21,823.38,3051.21,878.11Zm-59.78,0c0-22.32-16.2-38.26-38.25-38.26s-38.26,15.94-38.26,38.26c0,22.58,16.21,38.25,38.26,38.25S2991.43,900.69,2991.43,878.11Z"/><path class="cls-3" d="M3130.65,837.46v25.77h62.7v48.09h-62.7v59.77h-59.51v-186h129.91v52.34Z"/><path class="cls-3" d="M3282.08,785.12v186H3222.3v-186Zm19.66-60.31-29,42H3230l19.66-42Z"/><path class="cls-3" d="M3420.23,942.4h-52.6l-8,28.69h-64.3l62.17-186h72.79l62.17,186H3428.2ZM3408.8,901,3393.93,847,3379.05,901Z"/><path class="cls-3" d="M3753.38,878.11c0,56.58-39.59,93-101.75,93H3577.5v-186h74.13C3713.79,785.12,3753.38,821.78,3753.38,878.11Zm-59.78,0c0-22.32-14.34-38.26-42-38.26h-14.35v76.51h14.35C3679.26,916.36,3693.6,900.69,3693.6,878.11Z"/><path class="cls-3" d="M3904.28,921.15v49.94h-131v-186h128.58v50h-68.81v20.72h60.31v43h-60.31v22.32Z"/><path class="cls-3" d="M2244.36,1235.17v54.73H2115.24v-186H2175v131.24Z"/><path class="cls-3" d="M2374.54,1261.21h-52.6l-8,28.69h-64.29l62.17-186h72.79l62.17,186h-64.29Zm-11.43-41.44-14.87-53.94-14.88,53.94Z"/><path class="cls-3" d="M2662.79,1240v49.94h-131v-186H2660.4v50h-68.81v20.72h60.31v43h-60.31V1240Z"/><path class="cls-3" d="M2859.92,1196.92c0,56.59-39.58,93-101.75,93h-74.12v-186h74.12C2820.34,1103.93,2859.92,1140.6,2859.92,1196.92Zm-59.77,0c0-22.32-14.35-38.26-42-38.26h-14.35v76.51h14.35C2785.8,1235.17,2800.15,1219.5,2800.15,1196.92Z"/><path class="cls-3" d="M3049.35,1103.93v110.79c0,55.26-34.27,78.64-84.75,78.64-50.74,0-84.75-23.38-84.75-78.64V1103.93h59.51v104.41c0,17.27,9,26.83,25.24,26.83,15.94,0,25-9.56,25-26.83V1103.93Z"/><path class="cls-3" d="M3198.12,1220.83l49.42,32.68c-17.27,24.44-46.23,39.85-80.23,39.85-55.79,0-98-41.45-98-96.44,0-54.73,42.25-96.17,98-96.17,34,0,63,15.4,80.23,39.58L3198.12,1173c-6.9-9-17.79-14.35-30.81-14.35-22,0-38.26,15.94-38.26,38.26,0,22.58,16.21,38.25,38.26,38.25C3180.33,1235.17,3191.22,1229.86,3198.12,1220.83Z"/><path class="cls-3" d="M3375.06,1261.21h-52.6l-8,28.69H3250.2l62.17-186h72.79l62.17,186H3383Zm-11.42-41.44-14.88-53.94-14.88,53.94Z"/><path class="cls-3" d="M3574.85,1220.83l49.41,32.68C3607,1278,3578,1293.36,3544,1293.36c-55.79,0-98-41.45-98-96.44,0-54.73,42.24-96.17,98-96.17,34,0,63,15.4,80.23,39.58L3574.85,1173c-6.91-9-17.8-14.35-30.82-14.35-22.05,0-38.26,15.94-38.26,38.26,0,22.58,16.21,38.25,38.26,38.25C3557.05,1235.17,3567.94,1229.86,3574.85,1220.83Z"/><path class="cls-3" d="M3697.33,1103.93v186h-59.78v-186Z"/><path class="cls-3" d="M3913.32,1196.92c0,55-42.24,96.44-98,96.44s-98-41.45-98-96.44c0-54.73,42.25-96.17,98-96.17S3913.32,1142.19,3913.32,1196.92Zm-59.78,0c0-22.32-16.2-38.26-38.25-38.26S3777,1174.6,3777,1196.92c0,22.58,16.21,38.25,38.26,38.25S3853.54,1219.5,3853.54,1196.92Zm10.89-153.29-28.95,42H3792.7l19.66-42Z"/><path class="cls-3" d="M4105.4,1103.93v186h-53.93l-58.45-94v94h-59.77v-186h53.93l58.44,94v-94Z"/><image width="512" height="512" transform="translate(964.9 301.59) scale(1.22)" xlink:href="philosophy.png"/><image width="512" height="512" transform="translate(794.26 903.65) scale(1.44)" xlink:href="books.png"/></svg>